refinementinfo

progressstart 0

progressstop 100

progresstext "Mesh refinement"

reftype edgesplit

refine edgeswr
52 53 0.47
53 54 0.53
54 55 0.53
55 56 0.41
110 111 0.63
111 112 0.55
112 113 0.41
10 113 0.8
114 115 0.54
115 116 0.49
118 119 0.52
119 120 0.55
120 121 0.46
163 164 0.5600000000000001
162 163 0.5600000000000001
161 162 0.46
160 161 0.54
158 165 0.63
8 2113 0.47
14 1289 0.46
15 2035 0.52
16 1151 0.48
18 2038 0.44
20 1381 0.4
20 1848 0.5
21 1829 0.52
26 1345 0.42
27 1345 0.51
30 237 0.33
30 2480 0.45
238 31 0.68
31 237 0.3
31 2480 0.42
31 4259 0.37
32 2132 0.46
34 2122 0.35
35 1292 0.59
36 648 0.32
36 2442 0.47
36 2444 0.59
648 37 0.72
37 645 0.33
37 1291 0.34
37 2883 0.31
38 645 0.41
38 1291 0.43
39 1314 0.39
41 2304 0.43
41 1895 0.46
42 1379 0.62
631 43 0.45
47 1703 0.6
48 679 0.5700000000000001
52 216 0.43
377 52 0.55
53 215 0.36
216 53 0.54
373 53 0.5
53 377 0.48
54 213 0.4
215 54 0.66
54 374 0.55
213 55 0.63
375 55 0.5
55 374 0.51
55 2464 0.51
56 375 0.6
56 2324 0.59
56 2077 0.62
60 226 0.5700000000000001
494 69 0.62
505 69 0.6
70 494 0.4
70 503 0.47
72 508 0.34
506 73 0.59
74 506 0.36
74 512 0.42
74 4174 0.34
75 1144 0.32
78 2501 0.44
78 2187 0.3
87 369 0.52
89 1393 0.5
91 2267 0.46
510 95 0.44
95 511 0.5
4661 95 0.42
2359 98 0.42
98 1144 0.37
101 1329 0.61
319 103 0.5600000000000001
105 2366 0.35
105 4115 0.58
333 106 0.61
107 324 0.54
107 4300 0.33
107 2509 0.48
2385 108 0.4
108 324 0.62
109 1369 0.47
110 1315 0.59
111 334 0.5
334 112 0.5600000000000001
112 331 0.48
112 4381 0.6
4813 112 0.7000000000000001
112 637 0.36
112 2559 0.37
112 4816 0.26
112 1233 0.31
113 331 0.5700000000000001
114 1249 0.41
115 332 0.38
115 499 0.47
115 1152 0.4
4366 116 0.67
118 327 0.47
118 495 0.41
119 327 0.46
495 119 0.6
119 507 0.42
4642 119 0.59
119 1373 0.34
4131 120 0.63
120 325 0.46
507 120 0.62
120 2549 0.37
2385 121 0.51
121 325 0.51
4133 121 0.33
2372 121 0.5600000000000001
121 4349 0.4
121 2549 0.41
121 1369 0.38
6718 123 0.34
124 352 0.48
124 2390 0.53
125 350 0.45
352 125 0.55
126 349 0.35
350 126 0.58
126 4424 0.38
126 4428 0.38
128 2250 0.5700000000000001
132 355 0.5
133 367 0.51
133 2124 0.47
136 2174 0.59
137 363 0.45
137 810 0.41
137 4463 0.46
363 138 0.43
148 2268 0.5600000000000001
161 642 0.48
163 2418 0.62
504 164 0.52
164 2299 0.55
164 646 0.36
164 1314 0.4
165 1249 0.46
175 1617 0.47
177 1155 0.43
178 1289 0.54
179 1154 0.47
181 1361 0.47
182 1299 0.49
183 1299 0.5
183 1302 0.5
183 1391 0.45
184 692 0.45
188 2437 0.36
188 1343 0.32
189 1319 0.38
189 1346 0.42
189 4102 0.54
190 1320 0.53
191 4099 0.54
195 1241 0.35
195 1290 0.4
195 1314 0.39
195 2444 0.5600000000000001
197 1097 0.47
197 1290 0.44
198 1097 0.5700000000000001
201 1210 0.59
211 2077 0.73
212 2077 0.7000000000000001
259 213 0.5
213 1766 0.5
214 2224 0.51
214 675 0.49
214 2126 0.46
216 215 0.4
215 259 0.5700000000000001
215 373 0.63
215 1770 0.64
2317 216 0.5600000000000001
245 216 0.53
216 217 0.47
216 1770 0.55
216 2170 0.41
216 2234 0.48
216 2169 0.48
216 6286 0.5700000000000001
217 245 0.49
217 226 0.64
217 2169 0.51
253 218 0.5600000000000001
218 1634 0.52
235 219 0.44
220 1869 0.72
221 1929 0.47
221 1703 0.54
221 677 0.51
222 1929 0.54
222 1927 0.46
258 223 0.4
224 258 0.44
6825 224 0.37
224 2224 0.55
224 674 0.52
224 2126 0.51
225 670 0.5700000000000001
226 245 0.36
226 2156 0.39
226 2254 0.43
226 2106 0.53
226 800 0.51
226 3041 0.55
242 227 0.68
227 801 0.48
227 2484 0.52
227 2254 0.45
227 2109 0.49
228 242 0.34
228 802 0.5
228 1741 0.58
228 2109 0.51
228 2159 0.4
229 2134 0.39
229 803 0.52
229 1741 0.52
229 2150 0.49
230 2134 0.52
230 2150 0.61
231 1869 0.68
231 1703 0.67
234 253 0.39
254 234 0.63
234 1634 0.47
234 806 0.52
234 2148 0.52
234 6723 0.6900000000000001
235 2143 0.61
235 2238 0.59
235 2283 0.5700000000000001
238 237 0.49
239 1954 0.27
239 2003 0.47
239 2165 0.35
240 587 0.55
240 2143 0.62
241 2238 0.54
272 242 0.5
245 242 0.44
243 272 0.46
273 243 0.5
243 2134 0.58
244 273 0.43
245 2234 0.51
271 246 0.53
246 1895 0.55
246 2201 0.54
246 1905 0.62
262 247 0.42
247 2065 0.59
248 262 0.64
248 2224 0.71
257 249 0.28
249 1927 0.62
249 6433 0.68
250 1802 0.59
250 1870 0.5600000000000001
276 251 0.6900000000000001
251 257 0.45
251 4262 0.44
251 1870 0.42
251 1869 0.5
251 1871 0.5
261 253 0.5600000000000001
253 1635 0.5
253 2236 0.46
253 2242 0.39
254 261 0.46
254 2242 0.41
254 2238 0.5700000000000001
254 1509 0.53
255 274 0.54
255 2163 0.47
255 1634 0.59
256 259 0.42
256 1530 0.49
256 1770 0.49
256 2234 0.43
268 257 0.6900000000000001
6865 257 0.46
257 1871 0.55
257 1869 0.55
266 258 0.51
258 2224 0.61
258 2065 0.54
258 2200 0.5
258 2189 0.54
259 265 0.48
259 264 0.38
259 1530 0.5700000000000001
259 1747 0.53
260 265 0.49
261 2236 0.52
278 262 0.58
279 262 0.51
262 2103 0.48
262 2118 0.4
262 2105 0.41
262 2117 0.47
263 2164 0.52
264 1530 0.68
264 1767 0.64
271 265 0.48
278 265 0.5
265 1923 0.61
265 2103 0.55
271 266 0.52
266 278 0.46
266 2118 0.43
266 2065 0.55
266 1923 0.5700000000000001
267 2236 0.43
270 2118 0.49
271 1923 0.59
271 2189 0.5700000000000001
272 278 0.55
273 278 0.51
2494 273 0.35
279 273 0.43
273 2164 0.54
274 2248 0.46
274 2226 0.47
275 2261 0.6
276 1871 0.6900000000000001
276 1931 0.51
277 279 0.52
278 2103 0.55
279 2248 0.48
281 693 0.47
281 1046 0.54
281 1341 0.47
284 1370 0.5
285 700 0.54
287 956 0.55
287 698 0.6
288 1129 0.54
288 695 0.47
295 1140 0.46
295 4326 0.41
297 1140 0.52
299 2359 0.71
300 1340 0.62
301 5087 0.61
301 1255 0.44
301 1341 0.53
303 1247 0.62
304 1141 0.5
306 1036 0.44
306 954 0.52
307 4310 0.53
307 1298 0.49
308 1366 0.58
310 1129 0.53
310 4287 0.54
311 4310 0.62
312 1139 0.35
312 1272 0.5700000000000001
313 4310 0.67
315 1354 0.43
315 1389 0.47
316 1354 0.43
316 1389 0.47
337 317 0.5
317 336 0.49
317 1254 0.54
318 1068 0.5600000000000001
318 1329 0.5700000000000001
319 336 0.53
319 1068 0.5700000000000001
319 676 0.52
320 1254 0.5700000000000001
321 1393 0.51
324 323 0.31
324 325 0.49
324 1212 0.37
324 1075 0.29
324 1213 0.38
324 5387 0.43
324 4349 0.38
324 1369 0.37
324 2551 0.33
6836 325 0.65
325 326 0.4
325 1212 0.38
326 327 0.55
326 1270 0.52
326 1271 0.42
327 1374 0.48
331 2377 0.34
332 331 0.58
331 1232 0.32
331 1249 0.41
334 1235 0.43
336 1068 0.53
337 1143 0.58
337 1254 0.54
340 1027 0.51
344 1296 0.67
344 1389 0.6
348 6586 0.61
349 2250 0.5700000000000001
396 350 0.55
350 1778 0.34
350 2136 0.51
350 419 0.45
6718 352 0.3
393 352 0.49
352 2191 0.46
355 371 0.48
355 815 0.47
355 2218 0.53
358 1525 0.46
358 2205 0.53
359 667 0.48
360 671 0.52
360 1519 0.48
362 673 0.55
362 2012 0.54
363 2591 0.46
363 382 0.41
363 1821 0.45
363 1982 0.5
364 811 0.58
364 2174 0.58
364 1982 0.6
366 2174 0.59
366 2604 0.63
366 812 0.54
368 663 0.41
2324 369 0.46
369 387 0.5600000000000001
369 665 0.44
369 1441 0.54
369 2077 0.5700000000000001
371 2218 0.55
391 372 0.53
372 2170 0.31
374 373 0.42
373 377 0.49
389 373 0.49
373 378 0.5
373 1748 0.55
373 1771 0.55
374 389 0.43
375 374 0.51
376 374 0.5700000000000001
374 1748 0.47
374 4087 0.6
375 4087 0.61
378 377 0.49
377 2170 0.38
377 4492 0.58
377 1771 0.5600000000000001
377 2144 0.61
389 378 0.49
378 398 0.53
406 378 0.5600000000000001
378 1748 0.5600000000000001
378 1752 0.5600000000000001
378 2144 0.6
382 1980 0.4
382 1984 0.45
384 2176 0.61
405 385 0.43
406 389 0.5700000000000001
389 412 0.5600000000000001
389 1752 0.54
390 1483 0.5700000000000001
390 5694 0.63
391 2029 0.58
391 2146 0.55
401 393 0.51
393 400 0.49
393 396 0.45
393 1980 0.4
393 2219 0.51
394 405 0.55
394 2235 0.55
395 408 0.47
395 2177 0.5
401 396 0.45
396 2152 0.55
396 2219 0.5600000000000001
397 2152 0.48
398 406 0.41
398 1483 0.54
398 2041 0.53
398 2029 0.59
398 5694 0.61
400 1790 0.53
401 415 0.5700000000000001
401 4547 0.61
409 401 0.54
401 2007 0.44
415 402 0.45
402 2152 0.49
408 403 0.48
406 404 0.59
404 2041 0.53
404 2075 0.48
405 412 0.5
405 2133 0.41
412 406 0.37
414 406 0.36
406 2095 0.58
406 1752 0.61
406 2151 0.61
407 2235 0.5600000000000001
408 4549 0.64
408 2259 0.52
409 415 0.61
412 413 0.35
412 414 0.51
4053 412 0.4
412 2133 0.41
412 2095 0.45
413 1495 0.59
416 414 0.48
414 2095 0.44
414 2075 0.42
414 4569 0.5600000000000001
414 2239 0.43
415 416 0.54
415 2220 0.44
416 2611 0.28
416 2621 0.44
416 2101 0.4
416 2086 0.41
421 2137 0.54
423 822 0.5600000000000001
423 1999 0.53
425 693 0.67
426 695 0.39
426 2233 0.4
427 2266 0.48
430 700 0.58
431 2251 0.38
431 2268 0.53
432 826 0.43
432 2251 0.4
432 1575 0.53
433 825 0.41
433 1576 0.41
433 1575 0.55
436 691 0.55
436 1819 0.59
438 1999 0.48
438 821 0.44
438 1550 0.43
439 1536 0.58
439 4599 0.6
439 5814 0.58
441 2400 0.64
442 698 0.54
442 2266 0.53
443 823 0.58
444 1688 0.58
446 1688 0.38
446 1738 0.44
446 1718 0.39
447 2179 0.43
449 1783 0.48
449 2260 0.45
451 1574 0.53
452 1476 0.5700000000000001
453 1725 0.39
453 1732 0.44
453 1733 0.5600000000000001
454 1824 0.58
454 2192 0.63
455 2266 0.58
455 2192 0.58
457 2266 0.6900000000000001
458 1774 0.54
459 1826 0.67
460 1696 0.33
460 1697 0.41
460 1738 0.42
460 1719 0.33
461 2178 0.37
461 1697 0.46
464 1476 0.58
464 1774 0.49
465 1536 0.5700000000000001
465 4613 0.59
465 1550 0.5600000000000001
465 1801 0.5600000000000001
465 1878 0.5600000000000001
466 1782 0.51
467 1696 0.5700000000000001
468 1476 0.63
469 1824 0.5
469 2172 0.58
470 1476 0.53
471 1824 0.6
471 2178 0.52
471 6366 0.7000000000000001
472 1775 0.48
472 1732 0.53
473 2225 0.62
475 4623 0.6
476 2192 0.59
476 2172 0.61
480 1774 0.54
480 1775 0.5
482 1774 0.45
482 1476 0.54
482 2142 0.49
483 2225 0.53
484 4615 0.61
484 2128 0.49
485 1987 0.53
485 2142 0.51
487 1183 0.43
487 1000 0.46
487 1152 0.45
487 5341 0.44
489 1307 0.45
4128 490 0.37
490 497 0.67
490 1225 0.5700000000000001
493 1212 0.54
503 494 0.42
524 494 0.6
494 2716 0.44
525 494 0.51
494 1275 0.37
495 523 0.47
4635 495 0.42
495 1375 0.49
496 1178 0.45
497 4636 0.36
497 499 0.42
497 1146 0.38
497 1388 0.43
499 4649 0.59
4128 499 0.46
499 4124 0.45
499 1146 0.46
500 1355 0.43
517 501 0.35
510 501 0.36
503 525 0.42
503 1125 0.51
503 1259 0.44
503 2439 0.51
504 1241 0.38
505 1241 0.41
506 1384 0.36
507 4131 0.5
510 517 0.51
512 1320 0.47
512 1346 0.47
512 2690 0.34
512 4171 0.5700000000000001
517 2692 0.45
519 2677 0.62
519 1348 0.59
542 521 0.42
521 543 0.42
525 521 0.52
521 949 0.47
521 1125 0.58
522 947 0.55
522 1178 0.58
523 1373 0.47
4644 525 0.42
539 525 0.45
525 1259 0.52
531 527 0.42
527 538 0.6
539 527 0.46
530 536 0.5
530 532 0.5600000000000001
530 1308 0.45
530 1377 0.46
538 531 0.48
531 3215 0.4
531 1012 0.42
531 1307 0.44
531 2729 0.38
531 2746 0.46
531 1382 0.47
532 2663 0.49
532 998 0.52
532 1377 0.41
532 995 0.45
532 986 0.47
533 1000 0.5600000000000001
533 998 0.63
534 1285 0.45
534 998 0.59
2733 535 0.37
535 536 0.5600000000000001
535 4699 0.68
4695 536 0.45
536 538 0.59
538 2785 0.41
538 1199 0.44
538 1382 0.45
538 1200 0.44
2717 539 0.43
542 539 0.46
2745 539 0.47
539 1199 0.49
539 1201 0.43
539 1275 0.33
539 1172 0.38
539 1382 0.51
2685 540 0.41
542 1199 0.45
542 1202 0.39
543 552 0.54
543 1310 0.58
547 1045 0.7000000000000001
548 2778 0.62
548 1352 0.51
549 1311 0.59
551 555 0.53
552 1199 0.5700000000000001
552 1198 0.5700000000000001
552 1358 0.5700000000000001
553 1285 0.4
554 1358 0.58
555 2738 0.46
2786 555 0.59
558 555 0.51
555 1356 0.4
555 1052 0.4
556 1364 0.54
2789 558 0.62
2794 558 0.49
558 1351 0.43
559 1819 0.61
561 1688 0.46
561 2811 0.41
564 1593 0.5600000000000001
565 2138 0.52
565 2050 0.45
566 2070 0.64
566 2213 0.6
567 2035 0.49
567 2244 0.51
570 2231 0.42
572 1829 0.48
572 690 0.54
573 1617 0.41
574 2215 0.51
575 2202 0.52
578 681 0.46
578 2132 0.41
581 2143 0.49
581 2283 0.45
582 2168 0.48
582 2256 0.46
583 2167 0.49
583 2168 0.4
584 692 0.46
584 2059 0.46
585 2202 0.54
585 835 0.54
586 2132 0.37
586 2102 0.46
587 1856 0.53
587 2143 0.5700000000000001
589 1886 0.44
589 2092 0.45
589 1856 0.52
589 2256 0.46
592 2197 0.58
593 2216 0.51
594 2034 0.49
595 2193 0.54
595 1594 0.52
597 1816 0.48
598 1994 0.55
598 2193 0.59
603 2102 0.58
604 2092 0.44
604 2168 0.47
607 1856 0.47
609 1674 0.46
609 1653 0.47
609 4787 0.63
610 1885 0.48
611 1651 0.54
611 1951 0.5600000000000001
611 2045 0.55
612 1652 0.47
612 1887 0.48
613 1653 0.54
614 2194 0.51
615 2240 0.47
615 2193 0.55
616 2197 0.62
617 1992 0.47
617 1994 0.49
618 2044 0.5
620 2255 0.45
620 2091 0.36
621 2257 0.65
623 1816 0.51
624 1652 0.49
625 2217 0.43
625 2089 0.42
626 4787 0.62
626 2091 0.35
626 1652 0.42
626 1653 0.47
627 1651 0.43
627 1952 0.47
627 1836 0.39
628 1104 0.62
631 1265 0.55
631 1293 0.55
631 2924 0.59
632 670 0.52
632 1379 0.55
634 674 0.5700000000000001
634 1293 0.5600000000000001
635 677 0.58
635 1104 0.54
636 649 0.44
655 640 0.4
656 641 0.45
655 641 0.42
661 642 0.6
642 1390 0.46
643 1173 0.5
644 660 0.55
649 647 0.49
647 1106 0.53
648 3994 0.58
659 649 0.65
649 657 0.41
649 1102 0.44
651 650 0.41
650 1265 0.65
654 651 0.45
651 652 0.49
655 651 0.52
651 1293 0.5600000000000001
652 655 0.49
658 653 0.59
653 1248 0.37
653 1251 0.42
656 654 0.6
654 4833 0.5700000000000001
654 1250 0.47
656 655 0.53
655 2865 0.52
655 989 0.5
655 1264 0.5600000000000001
655 1281 0.5
661 656 0.55
656 1248 0.53
656 1305 0.48
657 660 0.53
657 658 0.5700000000000001
657 1104 0.6
661 658 0.62
658 4833 0.6
660 658 0.54
658 1015 0.51
660 659 0.4
660 978 0.51
660 980 0.5600000000000001
660 1015 0.55
661 1248 0.58
666 1072 0.55
667 2204 0.43
670 1265 0.52
670 1379 0.53
670 1895 0.51
670 2201 0.49
673 2012 0.49
673 2013 0.45
674 1294 0.51
674 2200 0.43
675 1252 0.37
675 1294 0.49
702 676 0.43
676 1073 0.48
677 2925 0.44
677 1239 0.38
677 3584 0.35
678 1325 0.49
678 1703 0.58
678 1869 0.59
679 1105 0.46
679 1106 0.49
680 1289 0.51
680 1292 0.55
681 1412 0.55
681 2262 0.52
682 718 0.5600000000000001
683 1252 0.4
683 1239 0.42
687 686 0.52
711 688 0.4
688 1848 0.5
689 710 0.6
710 690 0.44
690 1303 0.48
690 1302 0.45
690 2429 0.46
690 2166 0.53
690 1815 0.52
691 1046 0.58
691 1299 0.44
692 1848 0.5600000000000001
710 693 0.46
693 2121 0.45
708 694 0.44
695 1386 0.53
697 2211 0.52
698 1332 0.48
698 956 0.46
702 700 0.48
700 1370 0.46
700 2186 0.4
701 2012 0.46
701 2113 0.41
701 2014 0.39
702 725 0.5
702 703 0.53
702 1077 0.47
702 2012 0.47
703 956 0.44
703 957 0.43
704 760 0.46
761 704 0.5600000000000001
704 1020 0.43
704 2956 0.52
708 1385 0.43
708 1666 0.45
709 2498 0.5700000000000001
709 1385 0.45
709 2119 0.47
711 710 0.47
711 1974 0.32
712 1303 0.46
712 1829 0.42
713 1082 0.55
713 2074 0.45
714 2047 0.47
715 750 0.54
715 2047 0.46
715 2043 0.5700000000000001
717 1289 0.44
717 1151 0.44
718 2932 0.37
720 1318 0.55
720 1703 0.63
722 1842 0.55
723 743 0.51
723 1842 0.52
724 1379 0.51
724 2924 0.55
724 2126 0.5
724 1850 0.48
726 728 0.52
727 1329 0.52
730 728 0.44
729 739 0.52
729 1354 0.42
730 1393 0.43
730 1853 0.41
732 1854 0.47
733 2267 0.5
733 6406 0.59
734 738 0.39
734 1072 0.44
765 735 0.53
735 1103 0.46
735 981 0.42
735 1854 0.4
741 736 0.53
736 1365 0.48
736 981 0.45
737 1365 0.51
737 1894 0.4
738 1854 0.53
739 764 0.47
739 1360 0.5
739 1165 0.5600000000000001
739 2183 0.42
740 1113 0.46
740 1165 0.59
740 1811 0.49
740 1809 0.46
765 741 0.47
741 2190 0.42
741 2004 0.43
742 1113 0.45
742 1077 0.48
742 1165 0.58
742 2013 0.44
742 2014 0.4
743 744 0.58
743 765 0.55
743 1273 0.53
743 1294 0.53
743 1849 0.5
773 744 0.52
744 1362 0.47
744 1294 0.45
744 1473 0.47
744 1842 0.43
772 745 0.51
745 1239 0.4
745 1362 0.52
745 1473 0.52
763 750 0.61
751 750 0.5
750 1650 0.35
751 771 0.48
752 1219 0.45
755 1191 0.4
755 1303 0.43
755 2121 0.43
756 1193 0.5
762 757 0.5
757 1386 0.47
757 4864 0.51
759 1332 0.5700000000000001
764 760 0.5
760 1334 0.51
760 1332 0.52
760 1809 0.47
760 1991 0.52
761 1113 0.49
761 2962 0.5
768 762 0.55
769 762 0.46
762 1203 0.39
762 1193 0.52
762 1975 0.53
762 1974 0.4
763 1318 0.5600000000000001
763 1866 0.5600000000000001
763 2083 0.61
763 1896 0.45
764 766 0.47
764 775 0.5
764 1286 0.51
764 1809 0.47
776 765 0.5
774 765 0.49
765 981 0.45
765 1365 0.48
765 1327 0.5
765 1849 0.45
765 1855 0.43
766 1334 0.54
766 2207 0.53
767 1334 0.5600000000000001
768 787 0.55
769 1130 0.38
769 2026 0.49
769 1979 0.51
771 1649 0.46
773 772 0.47
772 1226 0.49
772 3529 0.54
773 774 0.5
773 1362 0.49
773 1326 0.43
773 1472 0.4
774 779 0.51
774 1273 0.48
774 1362 0.49
774 1350 0.48
774 1850 0.43
774 2185 0.43
775 1033 0.39
779 776 0.48
776 1103 0.49
776 6403 0.51
777 1022 0.58
779 778 0.5
778 1060 0.46
778 1022 0.47
778 1349 0.42
779 1849 0.43
780 1060 0.5
781 1022 0.5600000000000001
781 1991 0.54
782 1350 0.5600000000000001
782 1473 0.5700000000000001
787 1130 0.41
787 2011 0.45
787 2026 0.52
787 2155 0.44
788 1132 0.52
790 1022 0.58
792 1132 0.52
792 2025 0.61
794 1472 0.46
796 1060 0.55
799 2108 0.45
799 1772 0.44
799 2156 0.43
801 869 0.49
802 868 0.59
802 1741 0.59
803 867 0.41
803 1741 0.51
865 806 0.5600000000000001
806 864 0.38
807 847 0.58
807 1635 0.55
807 1509 0.5600000000000001
807 5008 0.74
808 2071 0.5600000000000001
848 809 0.45
811 812 0.46
811 862 0.52
811 2174 0.51
862 812 0.44
813 1834 0.43
815 1569 0.53
815 2218 0.5600000000000001
818 856 0.39
839 819 0.45
839 820 0.51
821 1999 0.53
821 1550 0.48
822 853 0.5700000000000001
853 823 0.39
823 2000 0.52
827 848 0.48
829 830 0.52
847 829 0.58
829 2070 0.54
829 2071 0.48
829 4740 0.54
847 830 0.59
830 2196 0.51
845 834 0.5600000000000001
837 839 0.7000000000000001
838 1521 0.58
839 1617 0.39
839 1626 0.41
840 1617 0.45
840 2215 0.46
842 897 0.55
842 1586 0.5700000000000001
843 1592 0.5
843 1861 0.42
843 2196 0.61
846 2070 0.55
846 2196 0.54
847 864 0.48
847 2070 0.61
848 1943 0.5
848 1983 0.48
848 2268 0.59
849 2268 0.62
852 2000 0.55
888 853 0.63
853 2028 0.43
855 854 0.5
854 1998 0.45
855 1626 0.48
858 2135 0.5700000000000001
858 2162 0.61
859 1566 0.52
859 1569 0.5600000000000001
859 1572 0.63
859 1570 0.51
859 2124 0.5
862 861 0.41
861 2053 0.5
862 2078 0.43
862 2174 0.49
862 1543 0.43
862 5831 0.59
862 2116 0.41
862 1983 0.42
864 2148 0.62
873 868 0.5700000000000001
868 2150 0.45
868 1949 0.39
870 2109 0.53
870 2106 0.59
873 902 0.47
913 875 0.5
878 2033 0.53
900 881 0.38
884 902 0.41
884 2149 0.48
884 2162 0.48
884 1569 0.42
884 1572 0.49
887 899 0.59
888 889 0.5600000000000001
888 2028 0.5600000000000001
889 890 0.31
889 2000 0.48
889 2028 0.51
891 900 0.48
891 2063 0.45
892 1943 0.46
892 1889 0.44
894 2033 0.53
896 1586 0.58
897 899 0.53
897 2027 0.54
897 1586 0.52
897 1966 0.52
897 5926 0.63
899 898 0.38
898 2001 0.58
899 908 0.4
903 899 0.54
899 2027 0.51
906 900 0.5700000000000001
909 902 0.4
902 2162 0.5700000000000001
902 2149 0.5700000000000001
904 925 0.6900000000000001
925 905 0.3
907 2114 0.55
908 2028 0.6
910 909 0.62
909 915 0.51
909 5076 0.48
909 1572 0.48
910 911 0.5
910 2081 0.46
910 1978 0.49
910 1570 0.48
910 2080 0.48
910 2171 0.51
911 920 0.5700000000000001
919 911 0.45
911 2171 0.51
911 2116 0.48
911 2078 0.5
918 912 0.49
913 1950 0.45
913 1948 0.46
915 914 0.33
915 916 0.35
915 921 0.38
915 1948 0.38
915 1978 0.36
917 918 0.59
918 925 0.64
919 920 0.52
919 2171 0.46
919 2264 0.45
919 1889 0.44
922 2027 0.53
925 926 0.37
925 2210 0.4
926 929 0.42
927 2130 0.61
928 2210 0.54
928 6658 0.59
929 6658 0.64
930 2079 0.51
930 2264 0.46
930 2171 0.47
931 933 0.55
932 933 0.53
932 1950 0.48
932 1948 0.48
932 2081 0.43
932 1976 0.5
933 2081 0.41
933 2079 0.5
933 2229 0.42
934 1950 0.52
936 1255 0.53
936 1247 0.5600000000000001
936 1272 0.6
937 946 0.58
937 944 0.58
938 1247 0.5
939 945 0.51
939 946 0.46
939 1247 0.42
939 1272 0.47
939 944 0.46
940 945 0.55
942 1277 0.53
943 945 0.58
943 1043 0.5
943 1355 0.48
943 1342 0.5
943 2520 0.47
944 1244 0.5600000000000001
944 1194 0.5
944 945 0.5600000000000001
944 1321 0.53
944 1246 0.4
944 1043 0.48
945 946 0.45
945 1039 0.35
945 1040 0.45
945 1041 0.45
945 1038 0.47
945 1051 0.38
946 1136 0.46
946 1123 0.5
946 1041 0.5
946 1050 0.39
946 1170 0.47
946 1194 0.49
947 1079 0.52
947 1042 0.5700000000000001
947 1045 0.5700000000000001
947 1178 0.53
947 1310 0.53
948 1010 0.63
948 950 0.64
949 1178 0.52
950 960 0.41
950 1197 0.42
950 1205 0.38
950 3108 0.41
950 1198 0.47
950 1202 0.41
951 1039 0.38
951 960 0.44
951 1047 0.48
951 1084 0.46
951 959 0.53
951 1049 0.46
951 1128 0.51
951 958 0.46
951 953 0.52
952 1207 0.53
952 953 0.53
953 1086 0.48
953 1128 0.48
953 1048 0.42
953 1131 0.51
953 1153 0.4
953 3113 0.45
953 5113 0.51
954 1366 0.55
955 1076 0.52
955 1298 0.51
956 1370 0.47
957 1073 0.45
958 1084 0.5
958 959 0.5700000000000001
958 1038 0.54
959 1086 0.48
959 1008 0.46
960 1038 0.5600000000000001
960 1040 0.55
960 1048 0.51
960 1204 0.54
960 1045 0.5700000000000001
961 962 0.44
961 983 0.46
961 1209 0.45
961 968 0.5
961 997 0.51
961 1145 0.46
961 969 0.44
962 964 0.52
962 997 0.58
962 1146 0.5600000000000001
963 984 0.46
963 1148 0.42
963 1196 0.47
963 964 0.46
963 966 0.39
963 965 0.47
963 1269 0.41
963 969 0.44
964 966 0.43
964 967 0.43
964 968 0.54
964 988 0.51
964 997 0.55
964 969 0.48
965 1265 0.51
965 969 0.47
965 1316 0.41
966 967 0.5
967 1265 0.59
967 1268 0.59
968 988 0.47
968 997 0.51
968 1209 0.45
968 1214 0.42
968 1162 0.47
968 1168 0.46
969 1214 0.48
969 970 0.47
969 1274 0.51
969 1209 0.51
969 1365 0.5600000000000001
970 3127 0.52
970 988 0.5600000000000001
970 989 0.49
970 1168 0.55
970 1214 0.51
970 1274 0.54
972 1015 0.62
973 1102 0.48
976 1173 0.58
976 1012 0.5700000000000001
976 1382 0.62
978 1328 0.44
978 1174 0.43
978 1173 0.55
978 980 0.55
979 1019 0.52
980 1307 0.51
981 984 0.5
981 983 0.49
981 1365 0.53
982 984 0.52
982 985 0.55
982 1269 0.47
983 1148 0.47
984 985 0.53
984 1032 0.5
984 1393 0.47
985 1269 0.42
985 2977 0.49
986 4699 0.6
986 1308 0.43
986 1377 0.44
986 995 0.48
986 988 0.48
987 1168 0.58
987 1281 0.52
987 1264 0.58
987 989 0.52
988 989 0.43
988 996 0.49
988 995 0.5
988 999 0.53
988 990 0.42
989 1236 0.46
989 999 0.6
990 997 0.62
990 1000 0.58
991 1112 0.66
991 1107 0.6
991 1368 0.5700000000000001
992 1113 0.53
995 999 0.53
995 998 0.5700000000000001
996 997 0.5600000000000001
996 998 0.58
996 1145 0.5
996 3128 0.5700000000000001
997 998 0.53
997 3162 0.5
997 1000 0.46
997 1146 0.49
997 1145 0.45
997 4703 0.42
997 1152 0.45
998 999 0.46
999 1000 0.47
1000 1336 0.45
1000 4629 0.61
1001 1002 0.5
1001 1005 0.5600000000000001
1001 1171 0.52
1002 1095 0.54
1002 1259 0.54
1003 1005 0.55
1003 1171 0.51
1003 1098 0.5
1005 1101 0.47
1005 1098 0.46
1005 3210 0.43
1005 1156 0.55
1005 1010 0.52
1005 1008 0.49
1005 1160 0.47
1005 3187 0.38
1006 1098 0.47
1006 1095 0.49
1006 3195 0.51
1006 1156 0.5700000000000001
1007 1171 0.52
1007 1201 0.49
1008 1205 0.42
1009 1125 0.62
1009 2439 0.61
1010 1083 0.51
1010 1084 0.45
1010 3093 0.48
1010 1156 0.53
1010 1081 0.45
1010 3095 0.55
1010 1154 0.44
1011 1082 0.54
1011 1158 0.51
1012 1307 0.52
1013 1166 0.58
1013 1019 0.5600000000000001
1015 1021 0.52
1015 1248 0.45
1015 1305 0.39
1015 4839 0.52
1016 1248 0.5
1016 1306 0.5600000000000001
1017 1141 0.65
1018 1238 0.48
1018 1231 0.44
1019 1238 0.44
1019 1240 0.41
1019 1251 0.47
1019 1248 0.42
1020 1333 0.51
1021 1100 0.49
1021 1104 0.49
1022 1023 0.46
1022 3239 0.46
1022 1025 0.48
1022 1060 0.49
1023 1025 0.52
1023 1055 0.52
1023 1116 0.5
1023 1119 0.33
1024 1025 0.54
1025 3239 0.47
1025 1112 0.55
1025 3243 0.49
1025 1286 0.49
1025 1287 0.5
1025 1288 0.49
1025 1184 0.42
1026 1030 0.39
1026 1107 0.49
1026 1143 0.54
1026 1110 0.45
1027 1254 0.52
1028 1030 0.37
1028 1029 0.45
1028 3261 0.38
1028 1112 0.53
1028 1143 0.52
1028 1107 0.48
1028 1253 0.46
1028 1254 0.49
1029 1032 0.51
1029 1287 0.54
1030 1031 0.63
1030 5198 0.74
1030 1037 0.64
1030 1111 0.58
1031 1032 0.45
1031 1374 0.49
1031 1296 0.51
1032 1196 0.51
1032 1295 0.45
1034 1035 0.54
1035 1057 0.38
1035 1103 0.5
1037 1111 0.44
1037 1112 0.52
1037 1287 0.47
1038 1040 0.49
1038 1039 0.38
1038 1047 0.48
1038 1216 0.52
1038 1042 0.51
1038 1321 0.5
1039 1041 0.6
1039 1047 0.6
1040 1311 0.48
1040 1380 0.49
1040 1044 0.54
1041 1123 0.5
1042 1044 0.52
1042 1045 0.5
1042 1339 0.42
1042 1043 0.45
1042 1263 0.36
1043 1320 0.55
1043 1348 0.5
1044 1045 0.48
1044 1384 0.32
1044 1311 0.44
1044 1348 0.43
1044 2767 0.41
1044 1279 0.45
1045 3089 0.4
1047 1078 0.45
1047 1216 0.53
1047 1218 0.41
1047 1203 0.38
1048 1131 0.58
1048 1135 0.54
1048 1207 0.58
1049 1128 0.55
1050 1193 0.62
1050 1134 0.61
1050 1123 0.6
1053 1057 0.45
1053 1058 0.5700000000000001
1053 1062 0.55
1053 1167 0.55
1053 1284 0.48
1053 1209 0.51
1054 1055 0.5600000000000001
1054 1116 0.54
1054 1223 0.47
1055 1062 0.5
1055 1057 0.4
1055 1182 0.44
1056 1135 0.61
1057 1058 0.62
1058 3301 0.39
1058 1169 0.52
1058 1283 0.43
1058 1327 0.51
1058 1349 0.45
1058 1350 0.5
1060 1349 0.46
1060 1188 0.39
1061 1349 0.58
1062 3301 0.4
1062 3302 0.55
1062 1207 0.52
1062 1206 0.5
1062 1351 0.47
1064 1366 0.66
1066 1068 0.6
1067 1143 0.58
1068 1329 0.51
1068 1253 0.49
1068 1073 0.43
1069 1076 0.52
1070 2501 0.58
1071 1076 0.58
1072 1103 0.54
1072 1295 0.45
1073 4337 0.51
1073 2567 0.62
1074 1212 0.64
1076 1370 0.46
1076 1176 0.45
1076 1113 0.47
1077 1253 0.51
1081 5127 0.46
1083 1210 0.47
1083 1154 0.43
1083 1156 0.53
1086 1128 0.5
1087 1359 0.49
1088 1118 0.63
1089 1092 0.55
1089 1371 0.53
1092 1141 0.62
1092 1333 0.54
1092 1298 0.55
1093 1094 0.5
1094 2697 0.5600000000000001
1095 1328 0.4
1095 1290 0.45
1096 1098 0.5
1096 1100 0.53
1097 1098 0.49
1097 1290 0.47
1097 1289 0.45
1097 1292 0.49
1098 1101 0.51
1099 1106 0.49
1100 1106 0.5
1100 1237 0.48
1100 1104 0.5
1100 1318 0.48
1101 3195 0.52
1102 2442 0.5600000000000001
1102 1292 0.55
1102 1290 0.52
1102 1106 0.58
1103 4893 0.37
1104 1237 0.48
1104 1106 0.5
1104 1240 0.42
1104 3134 0.43
1104 2884 0.44
1105 1106 0.54
1106 1292 0.47
1107 1143 0.55
1107 1270 0.51
1107 3388 0.6
1107 3384 0.54
1107 1375 0.46
1108 1222 0.52
1108 3459 0.52
1108 1225 0.53
1108 1224 0.52
1108 5393 0.62
1108 1179 0.53
1108 3261 0.41
1109 1222 0.63
1109 1147 0.55
1109 1182 0.5700000000000001
1110 1225 0.5700000000000001
1111 1175 0.44
1111 1182 0.47
1111 1112 0.58
1111 3253 0.6900000000000001
1112 5198 0.6
1112 3252 0.5
1112 3164 0.4
1112 1287 0.45
1112 1253 0.43
1112 1118 0.45
1112 3382 0.38
1113 1165 0.62
1114 1332 0.55
1116 3243 0.51
1116 3245 0.5600000000000001
1117 1137 0.59
1118 1120 0.29
1118 3243 0.49
1118 3393 0.38
1121 1186 0.51
1122 1338 0.48
1122 1134 0.52
1122 1207 0.5600000000000001
1122 1123 0.51
1123 1134 0.51
1123 1142 0.39
1125 1178 0.41
1125 1259 0.42
1126 1181 0.55
1128 1131 0.52
1128 1132 0.45
1128 1135 0.48
1128 1134 0.48
1128 1130 0.38
1129 1386 0.45
1129 1141 0.5600000000000001
1131 1228 0.45
1131 1207 0.49
1131 1206 0.47
1131 3309 0.41
1131 3311 0.36
1131 3332 0.4
1132 1134 0.53
1134 1135 0.5
1135 1207 0.54
1135 5240 0.46
1136 1187 0.49
1137 1141 0.52
1137 1333 0.44
1137 1334 0.47
1137 1332 0.48
1138 1141 0.67
1141 4310 0.46
1141 3442 0.32
1143 1270 0.46
1143 1271 0.36
1143 1253 0.44
1145 1285 0.44
1145 1208 0.43
1145 1336 0.46
1145 1146 0.54
1145 1224 0.54
1146 4649 0.63
1146 2703 0.46
1146 1336 0.42
1146 4650 0.52
1148 1195 0.5700000000000001
1148 1296 0.59
1151 1154 0.54
1151 1156 0.63
1152 4124 0.52
1152 4650 0.5600000000000001
1152 1336 0.46
1154 1156 0.59
1156 1221 0.37
1161 1214 0.47
1161 1273 0.5600000000000001
1161 1362 0.5700000000000001
1161 1166 0.55
1162 1264 0.48
1162 1169 0.55
1162 1167 0.52
1163 1274 0.5
1163 1164 0.44
1163 1264 0.5
1163 1293 0.52
1163 1248 0.45
1164 1169 0.63
1165 1287 0.43
1165 1329 0.42
1165 1254 0.43
1165 1360 0.44
1165 1288 0.41
1166 1169 0.53
1166 1248 0.41
1167 1208 0.4
1167 1214 0.43
1167 1209 0.46
1167 3302 0.55
1167 1280 0.37
1168 1377 0.47
1168 1308 0.46
1168 1281 0.44
1169 3324 0.53
1169 1362 0.49
1169 1214 0.39
1170 3086 0.54
1170 1193 0.54
1171 1328 0.41
1171 1331 0.4
1171 1276 0.45
1171 1172 0.43
1172 1173 0.59
1173 3143 0.49
1173 1174 0.39
1173 1307 0.51
1173 2418 0.61
1174 1241 0.52
1175 1181 0.5600000000000001
1177 1181 0.54
1177 1179 0.59
1178 2708 0.37
1178 1258 0.54
1179 1222 0.49
1179 1181 0.45
1179 1182 0.42
1179 2752 0.4
1181 1363 0.51
1181 1356 0.47
1182 3243 0.55
1184 1349 0.55
1186 3086 0.5700000000000001
1186 1193 0.58
1193 1386 0.44
1194 5102 0.62
1194 3082 0.54
1197 1200 0.55
1198 1200 0.5
1198 1205 0.41
1198 1206 0.51
1198 1364 0.52
1198 1310 0.47
1198 5113 0.54
1199 1202 0.44
1199 1382 0.52
1200 1358 0.49
1200 1382 0.51
1200 1201 0.44
1201 1275 0.39
1202 2717 0.64
1204 1207 0.55
1204 1380 0.5
1205 3506 0.61
1205 1206 0.6
1206 1207 0.52
1206 3332 0.43
1206 1364 0.52
1206 1358 0.49
1207 1364 0.5
1207 3516 0.51
1207 1338 0.42
1207 3338 0.41
1207 3339 0.38
1208 1284 0.53
1208 3294 0.66
1211 1213 0.5700000000000001
1211 1366 0.6
1211 2372 0.61
1212 1213 0.52
1214 1273 0.58
1216 1243 0.45
1216 1361 0.42
1216 1244 0.52
1216 1322 0.43
1216 3273 0.4
1218 1303 0.55
1222 3498 0.53
1222 2722 0.38
1224 2758 0.37
1224 1388 0.55
1225 3384 0.51
1225 1374 0.49
1225 1375 0.43
1225 1376 0.47
1225 1388 0.53
1226 1231 0.41
1227 3532 0.5
1231 1238 0.54
1232 4381 0.77
1235 1269 0.5
1235 1315 0.53
1237 1240 0.44
1237 2926 0.53
1238 2986 0.58
1238 3529 0.6
1238 1362 0.59
1239 1318 0.5600000000000001
1241 1290 0.55
1241 2299 0.68
1242 1244 0.64
1243 1302 0.46
1244 1301 0.41
1244 1319 0.42
1244 1361 0.4
1244 1321 0.47
1244 1322 0.41
1244 1391 0.35
1246 1345 0.61
1246 1346 0.63
1246 1342 0.58
1247 1347 0.38
1248 5182 0.58
1248 1390 0.48
1248 1281 0.49
1250 1294 0.5600000000000001
1253 1287 0.52
1253 1254 0.52
1254 1287 0.5
1254 1360 0.51
1254 1329 0.49
1257 2456 0.47
1257 1258 0.5
1257 1261 0.46
1258 1260 0.48
1259 1275 0.36
1262 1365 0.55
1265 1267 0.33
1265 1378 0.43
1270 1373 0.4
1272 1279 0.49
1272 1278 0.41
1273 1274 0.45
1273 1294 0.49
1273 1362 0.52
1273 1365 0.5
1273 1350 0.51
1273 3126 0.45
1274 1293 0.53
1279 1348 0.48
1284 3302 0.62
1284 1285 0.48
1287 1288 0.48
1290 1331 0.43
1290 4382 0.71
1291 1328 0.48
1291 2444 0.6900000000000001
1293 1379 0.51
1294 1387 0.47
1294 1362 0.52
1295 1393 0.51
1296 1376 0.47
1299 1303 0.52
1299 1391 0.45
1300 4338 0.5600000000000001
1301 1303 0.5
1301 1341 0.55
1303 1361 0.49
1305 1307 0.63
1308 1390 0.47
1310 1380 0.51
1310 1364 0.55
1310 5116 0.55
1319 1346 0.55
1319 4171 0.65
1319 1321 0.55
1319 1320 0.5600000000000001
1320 1346 0.49
1320 1384 0.34
1321 5103 0.39
1327 1349 0.44
1327 1365 0.48
1329 1330 0.41
1332 3235 0.42
1332 1334 0.49
1336 4629 0.65
1338 1380 0.53
1340 1391 0.44
1340 1343 0.47
1341 1385 0.42
1342 1355 0.48
1342 1348 0.51
1342 1346 0.5600000000000001
1342 5099 0.61
1342 2359 0.65
1345 1346 0.53
1345 2423 0.42
1345 2386 0.58
1346 2386 0.5600000000000001
1346 2338 0.41
1346 4102 0.61
1348 1355 0.47
1351 3333 0.6
1351 1364 0.55
1351 2800 0.5600000000000001
1359 1366 0.55
1359 1392 0.45
1362 3321 0.46
1364 2795 0.5
1364 1380 0.46
1364 2802 0.32
1364 2803 0.5
1364 5114 0.49
1365 1387 0.47
1368 1375 0.49
1368 1373 0.43
1370 3110 0.59
1373 1392 0.5
1373 4131 0.58
1376 1388 0.5700000000000001
1377 3127 0.51
1377 4632 0.55
1380 2795 0.55
1380 2765 0.45
1387 2924 0.5600000000000001
1388 4649 0.59
1394 2220 0.59
1395 1561 0.58
1395 1686 0.58
1397 1398 0.39
1397 1404 0.47
1397 3578 0.36
1397 1403 0.42
1397 1686 0.49
1399 1402 0.48
1399 1547 0.48
1399 1546 0.46
1401 1547 0.46
1401 1789 0.5
1401 1402 0.46
1402 1522 0.49
1403 1727 0.48
1403 1912 0.5
1403 1726 0.49
1403 1686 0.5700000000000001
1404 1723 0.34
1404 1724 0.4
1404 1792 0.45
1404 1788 0.37
1404 1516 0.43
1406 1866 0.59
1407 1925 0.41
1407 1929 0.5
1407 1865 0.41
1407 1703 0.5700000000000001
1407 1869 0.58
1408 1409 0.41
1408 1411 0.39
1408 1823 0.48
1408 1418 0.37
1409 1428 0.53
1409 1432 0.58
1410 1415 0.46
1410 1478 0.46
1410 1418 0.42
1411 1419 0.54
1412 2035 0.47
1412 1868 0.43
1412 2244 0.49
1413 1414 0.54
1413 1432 0.6
1413 1436 0.47
1413 1484 0.58
1413 1415 0.51
1413 1632 0.53
1414 1545 0.5
1414 1546 0.45
1414 1523 0.5
1414 1417 0.43
1414 1416 0.44
1414 1484 0.54
1414 3595 0.59
1414 5835 0.6
1414 1558 0.5
1415 1428 0.55
1415 1523 0.53
1416 1560 0.61
1416 1546 0.51
1416 1561 0.61
1417 1546 0.53
1418 1875 0.55
1418 1876 0.46
1419 1560 0.55
1419 1705 0.35
1420 1423 0.59
1420 1678 0.51
1420 1799 0.5700000000000001
1421 1427 0.61
1421 1434 0.58
1422 1424 0.59
1422 1433 0.6
1422 1457 0.54
1423 1424 0.49
1423 1430 0.45
1423 1429 0.47
1423 1427 0.5
1423 5545 0.5700000000000001
1423 1433 0.5
1423 5556 0.58
1423 1432 0.53
1423 5550 0.25
1424 1430 0.46
1424 1457 0.45
1424 1474 0.49
1424 1678 0.43
1424 1529 0.39
1424 1799 0.48
1426 1428 0.52
1426 1562 0.5700000000000001
1427 1428 0.49
1427 1433 0.5
1427 1497 0.38
1427 1501 0.33
1427 1503 0.43
1427 1496 0.48
1428 5545 0.58
1428 1479 0.48
1428 1429 0.48
1428 5529 0.6
1428 1478 0.46
1428 5534 0.49
1429 1430 0.48
1429 1436 0.42
1429 1523 0.5
1430 1477 0.46
1430 1475 0.52
1431 5565 0.71
1431 5555 0.59
1432 1436 0.37
1432 1500 0.47
1432 1611 0.5
1432 5503 0.39
1432 1433 0.47
1433 5528 0.55
1433 1501 0.32
1433 5565 0.67
1433 1773 0.35
1433 1750 0.36
1433 1435 0.4
1433 1499 0.37
1434 1453 0.5
1434 1456 0.5
1434 1443 0.43
1434 1458 0.54
1434 1435 0.44
1434 5558 0.59
1434 1750 0.39
1435 1444 0.43
1436 1440 0.47
1436 1632 0.5600000000000001
1436 1452 0.48
1436 1437 0.51
1436 1464 0.59
1436 1484 0.62
1436 1438 0.49
1436 5555 0.65
1437 1452 0.46
1437 1454 0.46
1438 1448 0.53
1439 1464 0.65
1440 1632 0.59
1440 1745 0.58
1440 1786 0.64
1440 3607 0.65
1441 1894 0.39
1441 1895 0.47
1441 1904 0.59
1441 1893 0.52
1441 1905 0.53
1441 2077 0.53
1441 1487 0.48
1442 1690 0.53
1443 1444 0.44
1443 1453 0.58
1443 1458 0.61
1444 1737 0.63
1446 1695 0.5600000000000001
1447 1555 0.53
1447 1695 0.5700000000000001
1448 1454 0.45
1448 1457 0.53
1448 1456 0.55
1449 1579 0.47
1449 1645 0.49
1450 5617 0.5600000000000001
1450 1489 0.51
1450 1464 0.53
1450 1455 0.47
1450 1454 0.42
1452 1464 0.61
1452 1555 0.5700000000000001
1452 1633 0.67
1453 1455 0.44
1453 1454 0.4
1453 1456 0.49
1453 1458 0.54
1453 1580 0.45
1454 1580 0.55
1455 1460 0.51
1455 1588 0.6
1456 1457 0.48
1456 1459 0.48
1456 1460 0.46
1456 1830 0.42
1457 1477 0.47
1457 1475 0.53
1457 1794 0.46
1457 1681 0.51
1457 6136 0.6
1457 1460 0.48
1457 3638 0.5600000000000001
1457 1795 0.47
1458 5594 0.5
1458 1764 0.34
1458 1773 0.34
1458 1937 0.4
1458 1862 0.44
1459 1582 0.54
1459 2131 0.46
1459 6658 0.61
1459 1672 0.59
1459 2210 0.5700000000000001
1460 3623 0.49
1460 1588 0.59
1460 1580 0.49
1460 1589 0.5700000000000001
1460 1795 0.49
1460 1582 0.55
1461 1900 0.54
1461 1765 0.44
1461 1902 0.5700000000000001
1461 1905 0.6
1462 1672 0.61
1463 1464 0.5700000000000001
1463 1553 0.65
1464 1466 0.43
1464 5617 0.52
1464 1552 0.41
1464 1475 0.49
1464 1484 0.53
1466 1469 0.6
1466 1533 0.45
1466 1668 0.48
1468 1508 0.52
1468 1615 0.5600000000000001
1468 1620 0.6
1469 5701 0.52
1469 1485 0.43
1469 1510 0.41
1469 1511 0.4
1469 1620 0.51
1469 1507 0.5
1471 1472 0.48
1471 1473 0.58
1472 1650 0.43
1472 1649 0.53
1473 1844 0.43
1473 1849 0.45
1473 2094 0.46
1473 2185 0.44
1473 1850 0.44
1473 2076 0.55
1474 5555 0.5600000000000001
1474 1477 0.43
1475 1489 0.49
1476 1631 0.46
1476 1796 0.39
1476 2057 0.53
1476 1774 0.41
1476 1801 0.47
1476 2067 0.44
1477 1548 0.54
1477 1800 0.55
1477 1794 0.5
1478 1654 0.51
1479 1599 0.5
1479 1600 0.45
1479 1503 0.46
1479 1660 0.43
1480 1681 0.54
1482 1547 0.52
1483 1568 0.44
1483 2030 0.42
1483 2075 0.44
1483 2032 0.4
1484 3598 0.52
1484 1549 0.45
1484 3595 0.55
1484 5577 0.37
1485 1532 0.53
1486 1852 0.41
1486 1893 0.58
1487 1904 0.61
1487 1893 0.55
1489 1552 0.43
1489 1551 0.45
1490 1546 0.54
1491 2238 0.5600000000000001
1491 2242 0.39
1494 2238 0.58
1494 2157 0.55
1494 2147 0.55
1494 1956 0.55
1494 1935 0.48
1495 1904 0.64
1495 2133 0.47
1496 1911 0.45
1496 1502 0.45
1497 1600 0.54
1498 1499 0.44
1498 1500 0.5700000000000001
1498 1675 0.5700000000000001
1499 1500 0.63
1499 1501 0.45
1499 1933 0.42
1499 1773 0.47
1499 5546 0.6
1500 1611 0.54
1500 5565 0.67
1500 3721 0.5700000000000001
1500 1787 0.48
1500 1503 0.42
1500 3607 0.52
1500 5545 0.5700000000000001
1500 5546 0.47
1501 1636 0.53
1501 1932 0.51
1503 5545 0.64
1503 1600 0.5
1503 1823 0.59
1503 3721 0.65
1507 1712 0.47
1507 1531 0.43
1507 1532 0.47
1507 1899 0.38
1507 1715 0.47
1508 1708 0.55
1508 1712 0.54
1509 2071 0.59
1509 2141 0.5600000000000001
1509 2143 0.58
1509 2238 0.55
1509 2157 0.51
1510 1613 0.65
1510 1616 0.58
1510 1711 0.52
1510 1712 0.5600000000000001
1510 1621 0.54
1511 1716 0.5
1512 1547 0.5600000000000001
1514 1717 0.5600000000000001
1514 1712 0.63
1515 1541 0.59
1515 1761 0.6
1515 1517 0.5700000000000001
1515 3681 0.7000000000000001
1515 1544 0.6
1516 3663 0.51
1517 1720 0.62
1518 2012 0.58
1520 1915 0.49
1520 1892 0.47
1521 1537 0.45
1521 1617 0.44
1521 1626 0.46
1521 1998 0.43
1521 1550 0.47
1522 1541 0.53
1522 1721 0.53
1522 1538 0.46
1522 2052 0.53
1526 6406 0.5600000000000001
1527 1654 0.46
1528 1875 0.5
1528 1665 0.5
1528 1876 0.42
1528 2204 0.42
1528 2267 0.48
1529 1761 0.5700000000000001
1529 1800 0.58
1529 1799 0.59
1529 1679 0.5600000000000001
1529 1813 0.58
1530 1767 0.45
1530 2100 0.32
1530 2234 0.44
1530 1753 0.45
1530 1907 0.53
1530 1765 0.42
1530 1770 0.5
1531 1899 0.45
1531 1698 0.4
1532 1899 0.42
1533 1708 0.63
1534 1960 0.5700000000000001
1534 1713 0.61
1536 1628 0.48
1536 1878 0.49
1538 1541 0.5700000000000001
1538 1543 0.5700000000000001
1538 1740 0.55
1539 1541 0.53
1539 1577 0.49
1539 1542 0.47
1539 2116 0.5
1539 1981 0.42
1539 2246 0.52
1539 1728 0.4
1539 1943 0.53
1540 1541 0.55
1540 1728 0.42
1540 1729 0.42
1541 1543 0.5
1541 1542 0.44
1541 1720 0.6
1541 1740 0.48
1542 2264 0.55
1543 1544 0.51
1543 1790 0.51
1543 5042 0.5600000000000001
1543 2174 0.5600000000000001
1543 1983 0.48
1543 2116 0.48
1543 5015 0.6
1544 1740 0.47
1544 1720 0.59
1544 1564 0.49
1544 5831 0.65
1544 2080 0.46
1544 2078 0.49
1544 2116 0.47
1544 2171 0.5
1545 1546 0.45
1545 5515 0.48
1545 1921 0.58
1545 1549 0.49
1545 1924 0.54
1545 1560 0.55
1545 2055 0.43
1546 5715 0.5700000000000001
1546 5712 0.64
1546 1758 0.58
1547 1789 0.53
1548 1813 0.51
1548 5581 0.6
1549 1922 0.6
1549 1924 0.55
1549 1921 0.58
1549 1670 0.55
1549 1713 0.52
1549 5637 0.53
1550 1628 0.49
1550 1997 0.54
1553 5635 0.38
1553 1734 0.45
1553 1633 0.48
1553 1556 0.39
1553 1970 0.45
1553 1670 0.45
1553 6115 0.47
1553 1922 0.5
1553 3774 0.37
1553 3690 0.54
1553 5614 0.48
1553 5613 0.4
1554 1694 0.46
1554 1653 0.52
1554 1674 0.51
1554 2045 0.52
1555 1633 0.61
1555 1695 0.54
1557 1651 0.58
1558 3603 0.5700000000000001
1558 1560 0.55
1558 1921 0.58
1558 3595 0.59
1559 1560 0.59
1560 1776 0.42
1560 1781 0.34
1560 6301 0.45
1560 1561 0.5
1560 5836 0.36
1560 2016 0.43
1560 1793 0.44
1561 1685 0.41
1561 1777 0.44
1561 1683 0.36
1561 1684 0.42
1561 6147 0.38
1561 1776 0.42
1562 5529 0.55
1562 1608 0.44
1562 1678 0.38
1562 5543 0.41
1562 5749 0.42
1562 5533 0.48
1564 1740 0.48
1564 1571 0.46
1564 2080 0.47
1564 1720 0.6
1564 2053 0.48
1566 1572 0.61
1566 2020 0.55
1567 2218 0.62
1568 2020 0.54
1568 1676 0.46
1568 1571 0.46
1568 1569 0.52
1568 2218 0.5600000000000001
1568 2029 0.61
1568 5694 0.63
1569 1572 0.5700000000000001
1569 2020 0.51
1569 2162 0.55
1569 2124 0.45
1571 1679 0.54
1571 1572 0.63
1572 2020 0.44
1572 2080 0.38
1572 1978 0.39
1572 2162 0.48
1574 1959 0.52
1574 1724 0.5
1575 1891 0.51
1575 2251 0.38
1577 1943 0.53
1577 2251 0.47
1577 2246 0.52
1577 1891 0.6
1579 1840 0.55
1580 1647 0.45
1580 1588 0.59
1580 1860 0.44
1580 1589 0.5700000000000001
1581 1860 0.43
1581 1672 0.6
1581 1862 0.51
1581 1918 0.46
1582 5913 0.45
1582 1585 0.51
1582 1589 0.52
1582 2131 0.42
1582 1795 0.44
1583 1857 0.59
1584 1615 0.51
1584 1681 0.49
1585 1589 0.51
1585 1588 0.53
1585 1587 0.45
1586 1966 0.5
1587 1614 0.5700000000000001
1587 1616 0.55
1587 1965 0.5700000000000001
1587 1966 0.5700000000000001
1587 2027 0.6
1588 1615 0.47
1588 3628 0.42
1588 1589 0.48
1588 5920 0.31
1588 3714 0.45
1588 5909 0.45
1589 1860 0.37
1589 1672 0.54
1589 5938 0.43
1589 1671 0.46
1589 6119 0.54
1589 2210 0.51
1589 1861 0.36
1589 1592 0.44
1592 2033 0.55
1592 1662 0.5
1593 2194 0.47
1593 3710 0.47
1593 1617 0.46
1594 2180 0.51
1594 1730 0.44
1594 2194 0.48
1594 2193 0.52
1595 1878 0.6
1596 1838 0.52
1597 1840 0.52
1597 1838 0.54
1598 1600 0.49
1598 1601 0.58
1598 2039 0.55
1598 2095 0.53
1598 2239 0.52
1599 1601 0.54
1599 1828 0.46
1599 1900 0.5
1599 1822 0.44
1599 2040 0.46
1600 1601 0.59
1600 1828 0.51
1600 1661 0.59
1600 1654 0.54
1601 1665 0.45
1601 1654 0.44
1601 5958 0.46
1601 1659 0.42
1601 1604 0.51
1603 1823 0.5600000000000001
1603 1604 0.5700000000000001
1603 1675 0.55
1604 1852 0.32
1604 1902 0.47
1604 1893 0.49
1604 1900 0.45
1604 5961 0.46
1605 1940 0.43
1605 1904 0.61
1605 2133 0.44
1605 1893 0.55
1607 1608 0.59
1607 2036 0.46
1608 1640 0.42
1608 1609 0.41
1608 1755 0.45
1608 1677 0.43
1609 2039 0.59
1609 1660 0.52
1610 1844 0.48
1610 1787 0.52
1610 3845 0.55
1610 1823 0.55
1610 1873 0.45
1610 1846 0.4
1611 1823 0.48
1611 3846 0.5600000000000001
1611 2087 0.5
1611 5564 0.43
1611 1787 0.44
1611 1786 0.46
1611 3845 0.48
1611 3589 0.51
1611 5587 0.4
1612 1709 0.55
1613 1615 0.42
1613 1619 0.5
1613 1618 0.46
1613 1620 0.45
1613 1616 0.43
1614 1615 0.47
1614 1618 0.51
1614 1619 0.55
1614 1681 0.44
1614 1616 0.48
1614 1857 0.52
1614 2010 0.42
1614 1794 0.4
1614 1880 0.33
1614 5931 0.6
1615 1622 0.45
1615 1681 0.48
1615 1903 0.4
1616 1620 0.52
1616 1619 0.5700000000000001
1616 1623 0.4
1616 1965 0.52
1616 1967 0.4
1616 3726 0.46
1616 1903 0.39
1617 1626 0.52
1617 1628 0.51
1617 2397 0.46
1618 1879 0.36
1618 1880 0.32
1618 6003 0.55
1618 1620 0.49
1618 1622 0.41
1618 1631 0.42
1618 5690 0.35
1618 1625 0.44
1619 1620 0.46
1619 1623 0.34
1619 1624 0.42
1619 1631 0.38
1619 1965 0.45
1619 1625 0.41
1619 5993 0.45
1619 1997 0.43
1620 1631 0.42
1620 1624 0.46
1620 1712 0.46
1620 1831 0.38
1620 5989 0.54
1621 1624 0.52
1621 1903 0.43
1621 2240 0.45
1621 2194 0.48
1622 5649 0.59
1623 1998 0.53
1623 1997 0.59
1623 1966 0.62
1623 1965 0.62
1623 1624 0.58
1624 1631 0.47
1624 1832 0.35
1624 1831 0.43
1624 2088 0.45
1624 1628 0.46
1624 1878 0.48
1625 1965 0.55
1625 2024 0.53
1625 2028 0.5600000000000001
1625 2057 0.54
1625 2009 0.47
1626 2001 0.55
1626 1966 0.5700000000000001
1627 2215 0.55
1628 1998 0.48
1628 3713 0.59
1628 5999 0.47
1629 2142 0.45
1629 2495 0.51
1630 2057 0.54
1630 6447 0.67
1630 2142 0.46
1630 5993 0.54
1631 6001 0.58
1631 1801 0.51
1631 2088 0.48
1631 5673 0.5600000000000001
1631 1798 0.32
1631 2057 0.5700000000000001
1631 1832 0.38
1631 1796 0.43
1631 6324 0.54
1631 5996 0.65
1631 5994 0.62
1632 5584 0.48
1632 1633 0.6
1632 1734 0.5600000000000001
1632 3595 0.6
1632 1922 0.61
1632 1786 0.54
1632 2087 0.58
1632 2093 0.49
1633 5845 0.5
1633 1897 0.37
1633 1736 0.35
1633 1695 0.43
1633 5584 0.39
1634 1635 0.42
1634 1919 0.49
1634 2236 0.39
1634 2242 0.32
1634 2237 0.37
1635 2148 0.63
1635 1919 0.5600000000000001
1635 2242 0.39
1635 2157 0.52
1635 2241 0.44
1636 1638 0.52
1636 2069 0.58
1638 1773 0.47
1639 1767 0.51
1639 2069 0.54
1639 2158 0.49
1639 1769 0.39
1641 2020 0.59
1641 1755 0.53
1644 1932 0.51
1644 2163 0.55
1644 2164 0.5600000000000001
1644 1933 0.46
1645 1651 0.53
1645 1653 0.55
1645 1837 0.54
1645 1652 0.5
1650 2083 0.65
1650 1702 0.62
1650 2043 0.68
1651 4054 0.64
1651 1952 0.54
1652 1839 0.43
1652 1840 0.52
1652 2091 0.43
1653 1690 0.42
1653 2045 0.5
1653 4778 0.5600000000000001
1653 1689 0.48
1653 2091 0.38
1653 4785 0.53
1654 1661 0.55
1654 1876 0.41
1655 2159 0.49
1655 2164 0.52
1655 2134 0.55
1656 1949 0.65
1658 6068 0.54
1659 1661 0.58
1659 2235 0.5700000000000001
1661 1877 0.46
1661 2235 0.5
1661 5787 0.44
1661 1944 0.43
1661 2239 0.44
1662 1672 0.6
1662 1919 0.54
1663 1672 0.64
1665 1875 0.49
1665 2005 0.53
1666 2120 0.5600000000000001
1666 2054 0.5600000000000001
1670 5636 0.37
1670 1898 0.38
1670 1970 0.5
1670 3814 0.42
1670 1713 0.47
1670 3813 0.47
1670 3646 0.35
1671 1672 0.59
1671 1861 0.4
1672 1862 0.41
1672 1680 0.35
1673 1900 0.5600000000000001
1674 2045 0.51
1674 1689 0.49
1675 1900 0.47
1675 1911 0.43
1675 1923 0.46
1676 2039 0.5700000000000001
1676 2075 0.54
1677 1720 0.65
1677 3720 0.4
1678 3855 0.61
1678 1799 0.5600000000000001
1678 3744 0.62
1678 1679 0.53
1679 1720 0.6
1679 1761 0.51
1679 5791 0.59
1679 2080 0.47
1681 1857 0.58
1684 5869 0.5700000000000001
1685 1686 0.59
1685 2123 0.47
1685 1807 0.47
1685 2154 0.45
1686 1914 0.37
1686 1726 0.42
1686 2098 0.43
1686 1784 0.43
1688 1718 0.51
1688 1716 0.51
1688 1719 0.47
1688 1715 0.58
1688 1730 0.51
1688 1731 0.52
1688 1738 0.5600000000000001
1688 4263 0.59
1689 2099 0.47
1689 2255 0.49
1689 1690 0.44
1689 1694 0.46
1692 1693 0.53
1693 1695 0.51
1694 1702 0.54
1695 1737 0.48
1695 1702 0.49
1697 1699 0.49
1697 1812 0.51
1697 2121 0.48
1698 1960 0.61
1699 1812 0.52
1701 2044 0.47
1702 3953 0.5600000000000001
1702 1896 0.37
1702 2043 0.5600000000000001
1703 1929 0.43
1703 5493 0.48
1703 1704 0.38
1704 1868 0.48
1704 1869 0.62
1705 1777 0.64
1708 1903 0.39
1708 1952 0.52
1708 1906 0.41
1708 2089 0.43
1708 2217 0.44
1708 1836 0.44
1709 1903 0.44
1709 1906 0.46
1709 2193 0.53
1709 1831 0.46
1710 1989 0.64
1711 1712 0.55
1711 1715 0.54
1712 1831 0.42
1712 1938 0.44
1712 1715 0.5
1713 1960 0.46
1713 3775 0.46
1713 2120 0.49
1713 1924 0.52
1713 3672 0.38
1713 1758 0.51
1713 5712 0.5700000000000001
1714 1716 0.53
1715 1731 0.43
1715 1730 0.42
1715 1899 0.41
1715 1717 0.43
1715 1718 0.42
1715 1964 0.38
1715 1994 0.46
1716 2209 0.47
1717 1938 0.52
1717 1832 0.42
1717 2209 0.47
1718 2179 0.46
1718 1797 0.46
1718 1730 0.5
1720 1740 0.38
1720 2052 0.4
1720 3903 0.35
1720 2031 0.37
1720 1751 0.33
1721 1727 0.48
1721 1723 0.38
1721 2007 0.41
1722 2098 0.5
1722 1726 0.49
1722 1916 0.49
1722 1912 0.5
1722 2220 0.49
1722 1914 0.44
1723 1728 0.49
1724 1792 0.55
1725 1727 0.59
1725 1726 0.59
1725 1788 0.52
1725 2225 0.53
1725 2137 0.59
1726 1727 0.49
1726 1788 0.43
1726 2098 0.51
1726 1784 0.51
1726 2225 0.44
1727 2098 0.52
1727 1779 0.4
1728 2251 0.5700000000000001
1728 2245 0.59
1730 2179 0.46
1731 1994 0.52
1731 1938 0.51
1732 2137 0.54
1733 2191 0.36
1733 2245 0.39
1733 2389 0.32
1734 5845 0.53
1734 2018 0.42
1734 1970 0.5
1734 5843 0.55
1734 1922 0.55
1734 1897 0.4
1734 2042 0.42
1734 2093 0.42
1736 1786 0.61
1737 1744 0.37
1737 1953 0.51
1737 1957 0.4
1737 1864 0.47
1738 2206 0.37
1740 1790 0.52
1740 2052 0.52
1740 5818 0.54
1740 1791 0.48
1740 5780 0.59
1741 2159 0.32
1741 1949 0.4
1741 5052 0.47
1742 1959 0.54
1744 3607 0.68
1744 5587 0.6
1744 1863 0.64
1744 1786 0.67
1744 1787 0.65
1744 1910 0.51
1745 1750 0.41
1745 1910 0.39
1745 1746 0.39
1745 1936 0.49
1745 1930 0.48
1746 1936 0.59
1746 1956 0.59
1747 1765 0.47
1747 3830 0.61
1747 1753 0.49
1747 1770 0.55
1747 2465 0.66
1748 1753 0.41
1748 1752 0.5
1748 1770 0.46
1748 2097 0.41
1750 1935 0.51
1750 1764 0.48
1750 1936 0.5700000000000001
1750 6486 0.65
1752 1753 0.41
1752 2039 0.49
1752 2095 0.47
1753 2040 0.53
1753 1771 0.59
1753 1907 0.58
1753 2072 0.52
1754 1900 0.58
1754 1940 0.52
1755 2021 0.51
1758 1759 0.45
1758 5712 0.5600000000000001
1759 2056 0.47
1759 2120 0.53
1759 1827 0.46
1761 1799 0.52
1761 5791 0.58
1761 5769 0.54
1762 1890 0.42
1762 2114 0.51
1763 2129 0.53
1764 1937 0.5700000000000001
1765 1911 0.5600000000000001
1765 1900 0.6
1765 1923 0.59
1765 2100 0.39
1767 2069 0.53
1767 2100 0.36
1767 2104 0.37
1768 1822 0.5
1768 2036 0.45
1770 2144 0.59
1770 2072 0.46
1770 2234 0.43
1771 2144 0.55
1771 2036 0.37
1771 2072 0.43
1774 1775 0.45
1774 1959 0.54
1774 2057 0.62
1776 1806 0.44
1776 1793 0.52
1776 1988 0.55
1777 1781 0.39
1777 1875 0.49
1777 1876 0.4
1778 2152 0.67
1780 2098 0.58
1781 1991 0.62
1781 2182 0.62
1781 2207 0.61
1782 2098 0.5700000000000001
1782 1784 0.5700000000000001
1782 1783 0.51
1783 2015 0.55
1783 2186 0.48
1783 1784 0.5600000000000001
1783 2110 0.52
1784 2098 0.5
1784 1916 0.48
1784 2154 0.44
1784 2123 0.46
1784 2110 0.45
1784 6299 0.41
1785 2154 0.45
1786 1787 0.48
1786 3828 0.43
1786 2076 0.5600000000000001
1787 1844 0.46
1787 3721 0.59
1787 1843 0.46
1787 1925 0.4
1787 2076 0.58
1787 3722 0.41
1787 1910 0.36
1788 1959 0.5600000000000001
1789 6536 0.46
1789 1820 0.44
1790 1980 0.38
1790 1982 0.5600000000000001
1790 2007 0.41
1790 2174 0.55
1791 2174 0.6
1791 2604 0.64
1792 2008 0.44
1793 1989 0.51
1794 1857 0.62
1794 2068 0.55
1795 1800 0.54
1795 3628 0.51
1795 1799 0.5600000000000001
1796 4613 0.61
1799 1976 0.49
1799 2229 0.43
1800 1813 0.5
1800 2079 0.53
1801 1997 0.54
1801 2067 0.47
1802 1864 0.45
1802 1869 0.55
1802 3800 0.29
1804 2176 0.74
1805 1807 0.53
1805 1917 0.6
1806 2981 0.63
1807 2013 0.51
1807 2015 0.54
1808 1988 0.59
1809 1988 0.5600000000000001
1810 1875 0.5
1811 2182 0.51
1812 6182 0.59
1812 1819 0.5600000000000001
1813 1880 0.38
1815 1816 0.48
1815 1819 0.54
1816 1818 0.47
1816 1848 0.49
1816 1995 0.47
1819 2293 0.38
1820 6010 0.5600000000000001
1821 1982 0.54
1822 2039 0.5700000000000001
1822 3717 0.6
1822 1908 0.47
1823 2005 0.47
1823 3759 0.47
1824 2090 0.51
1824 6372 0.62
1824 2178 0.42
1824 2192 0.55
1825 1826 0.47
1827 2090 0.54
1827 2266 0.58
1828 1944 0.51
1828 2040 0.5
1829 1961 0.55
1831 2240 0.5
1831 2193 0.5700000000000001
1836 1838 0.55
1836 2048 0.5700000000000001
1838 2048 0.52
1839 1840 0.59
1840 1885 0.49
1840 1882 0.43
1840 1860 0.41
1841 1842 0.47
1841 1843 0.44
1841 1844 0.44
1841 2189 0.44
1841 2200 0.41
1841 1850 0.44
1841 2126 0.46
1841 2224 0.51
1841 1846 0.36
1841 2065 0.44
1841 2190 0.39
1842 1844 0.47
1842 1927 0.42
1843 1844 0.5
1843 1927 0.44
1843 1925 0.43
1843 2118 0.39
1843 1873 0.47
1843 2224 0.5700000000000001
1844 1849 0.52
1844 1847 0.42
1844 2076 0.62
1845 1849 0.59
1846 1902 0.63
1849 1855 0.48
1851 3888 0.71
1854 1875 0.51
1855 2005 0.55
1856 1884 0.41
1856 2141 0.53
1856 2147 0.49
1856 2213 0.5700000000000001
1856 2143 0.54
1856 4744 0.47
1857 2010 0.4
1857 1965 0.48
1857 6136 0.52
1857 2130 0.5
1857 2027 0.5
1858 1859 0.51
1859 1862 0.53
1859 2033 0.5700000000000001
1859 2157 0.52
1859 1884 0.45
1859 1919 0.5600000000000001
1860 1887 0.5700000000000001
1860 2050 0.5600000000000001
1862 1918 0.45
1862 6094 0.58
1862 1919 0.53
1863 1925 0.4
1863 6232 0.47
1863 1930 0.45
1863 1957 0.38
1863 1953 0.5
1863 1864 0.46
1863 2265 0.43
1863 1871 0.5600000000000001
1863 1931 0.38
1864 2003 0.55
1864 1871 0.6
1864 2099 0.5
1866 1896 0.39
1867 2083 0.54
1867 1868 0.44
1868 2102 0.5700000000000001
1868 2132 0.48
1868 2262 0.55
1869 1870 0.42
1869 2470 0.4
1869 5493 0.47
1870 6865 0.5700000000000001
1870 1872 0.4
1870 2132 0.41
1870 2122 0.36
1871 2003 0.44
1871 1953 0.44
1871 2265 0.37
1873 3656 0.55
1873 2103 0.49
1875 1876 0.42
1875 2208 0.46
1875 2115 0.43
1876 3758 0.54
1877 2235 0.54
1877 1917 0.51
1877 2269 0.51
1878 2199 0.47
1878 6001 0.58
1880 5987 0.72
1882 1887 0.55
1884 2141 0.61
1884 2213 0.65
1884 2157 0.5700000000000001
1885 1887 0.49
1885 2091 0.41
1885 2092 0.44
1886 2147 0.5600000000000001
1887 2138 0.55
1889 1891 0.59
1889 2264 0.51
1889 2116 0.5
1892 1944 0.52
1892 6489 0.63
1892 2101 0.52
1893 1905 0.51
1893 1894 0.36
1893 1940 0.39
1894 1902 0.61
1895 1905 0.5700000000000001
1898 1961 0.55
1898 1975 0.58
1898 6354 0.59
1899 1992 0.53
1899 1994 0.55
1900 1901 0.39
1900 1923 0.49
1900 1911 0.46
1900 1940 0.44
1902 1940 0.41
1902 1905 0.54
1902 2201 0.45
1903 2089 0.53
1903 2197 0.63
1904 1905 0.44
1904 1940 0.33
1904 6477 0.35
1904 2077 0.44
1905 1940 0.38
1905 4213 0.44
1906 1951 0.6
1907 1911 0.45
1908 2021 0.5700000000000001
1909 2077 0.7000000000000001
1910 1925 0.54
1910 2253 0.44
1912 2219 0.49
1912 2230 0.46
1913 2085 0.59
1913 1917 0.5600000000000001
1914 2152 0.55
1915 2085 0.5700000000000001
1915 2230 0.47
1915 2052 0.51
1915 2220 0.49
1916 2098 0.52
1916 2154 0.45
1919 2148 0.5700000000000001
1919 2247 0.45
1919 2241 0.38
1921 1924 0.46
1921 2016 0.4
1921 1922 0.52
1921 2087 0.49
1921 3644 0.47
1922 1924 0.45
1922 2025 0.46
1922 6502 0.49
1922 3919 0.34
1922 2042 0.37
1923 2103 0.44
1924 5836 0.36
1924 2054 0.47
1924 2155 0.38
1924 2025 0.51
1924 2011 0.4
1924 6115 0.52
1925 1927 0.51
1925 1929 0.59
1925 5493 0.63
1925 2118 0.45
1927 1928 0.5700000000000001
1927 2118 0.44
1927 2253 0.39
1927 2224 0.62
1928 1929 0.51
1928 2076 0.6
1929 2253 0.32
1929 1931 0.39
1930 2265 0.48
1930 1936 0.51
1930 1931 0.43
1931 2261 0.49
1932 1937 0.58
1932 6486 0.67
1932 2226 0.58
1932 2104 0.44
1933 6436 0.66
1933 2103 0.62
1934 2118 0.47
1935 1936 0.5700000000000001
1935 1957 0.5
1936 2226 0.48
1936 2195 0.35
1936 1957 0.43
1936 1937 0.48
1936 2117 0.46
1937 2221 0.45
1937 2248 0.49
1937 2236 0.47
1938 2179 0.44
1938 2193 0.55
1939 4087 0.75
1943 2268 0.59
1944 2039 0.54
1944 2095 0.52
1944 2075 0.5
1944 2086 0.51
1945 1948 0.55
1945 1950 0.54
1946 1949 0.5600000000000001
1948 1976 0.52
1949 3927 0.5600000000000001
1951 1992 0.42
1951 1995 0.42
1951 2044 0.42
1951 1952 0.52
1952 2089 0.4
1952 2217 0.41
1953 2099 0.46
1953 1955 0.44
1953 1954 0.31
1954 2265 0.63
1954 1957 0.59
1954 2003 0.7000000000000001
1955 2255 0.54
1956 1957 0.43
1956 2221 0.43
1958 2225 0.5600000000000001
1959 5901 0.58
1959 2142 0.5
1960 2056 0.47
1960 2120 0.53
1960 1975 0.53
1960 1962 0.47
1961 6465 0.58
1961 2059 0.43
1961 6354 0.55
1962 3980 0.52
1962 1975 0.5600000000000001
1962 2121 0.5
1962 6470 0.59
1965 2024 0.49
1965 2010 0.42
1965 1966 0.5
1965 5931 0.6
1966 2001 0.48
1966 2027 0.52
1966 2215 0.42
1967 2216 0.55
1970 1979 0.48
1970 5845 0.54
1970 2025 0.51
1970 2026 0.46
1970 6116 0.42
1972 2107 0.53
1972 2021 0.53
1973 2120 0.59
1975 2120 0.5
1975 3980 0.46
1976 2081 0.43
1976 1978 0.47
1976 2066 0.46
1978 2080 0.48
1980 2219 0.62
1981 1982 0.66
1982 6309 0.38
1982 2174 0.49
1983 2116 0.49
1984 2191 0.5
1986 1989 0.55
1986 1988 0.58
1987 2225 0.43
1988 2188 0.44
1988 2186 0.38
1988 2260 0.37
1989 2192 0.52
1989 6566 0.64
1990 2120 0.58
1990 2054 0.58
1991 2263 0.42
1991 2182 0.49
1993 2059 0.47
1993 2017 0.55
1994 2217 0.49
1994 2193 0.54
1995 4520 0.5700000000000001
1997 1999 0.51
1997 2001 0.51
1997 2057 0.52
1997 3734 0.48
1997 2028 0.54
1998 1999 0.58
1998 2001 0.58
1999 2000 0.5
2000 2060 0.43
2000 2067 0.42
2001 2024 0.5
2001 2027 0.54
2001 2028 0.53
2007 2219 0.58
2007 2052 0.59
2007 2220 0.5700000000000001
2009 2010 0.49
2009 6003 0.63
2009 2114 0.52
2010 6003 0.64
2010 2068 0.53
2010 2114 0.52
2012 2014 0.43
2012 2187 0.34
2012 2250 0.46
2013 2015 0.52
2015 2154 0.45
2015 2250 0.48
2015 2270 0.38
2016 6301 0.53
2016 2111 0.49
2017 2038 0.45
2017 2231 0.43
2019 2162 0.55
2019 2020 0.51
2019 2029 0.58
2019 6600 0.5700000000000001
2019 2073 0.47
2019 2218 0.53
2019 2021 0.47
2019 2135 0.52
2020 2149 0.55
2020 2162 0.54
2020 2021 0.46
2021 2160 0.43
2021 2069 0.49
2024 2027 0.54
2024 2028 0.53
2024 2114 0.45
2024 2214 0.5
2024 2068 0.46
2025 2026 0.45
2026 2042 0.46
2028 2060 0.4
2029 2036 0.31
2029 2041 0.44
2029 2151 0.44
2029 2144 0.48
2029 4536 0.55
2029 2146 0.48
2029 2030 0.37
2029 6483 0.37
2030 2039 0.55
2031 2101 0.53
2033 2196 0.5600000000000001
2033 2213 0.54
2033 2141 0.5
2035 4881 0.49
2036 2040 0.58
2036 2039 0.62
2039 2040 0.45
2039 2095 0.48
2040 2097 0.47
2041 2095 0.47
2041 2075 0.45
2042 6634 0.54
2042 3918 0.61
2043 2083 0.47
2045 2607 0.44
2048 2049 0.44
2048 2197 0.51
2049 4768 0.66
2052 6489 0.6
2055 2207 0.5600000000000001
2057 6003 0.5600000000000001
2058 6003 0.55
2058 6447 0.62
2065 2103 0.46
2065 2224 0.5600000000000001
2068 2130 0.5700000000000001
2069 2234 0.45
2069 2169 0.45
2069 2073 0.51
2069 2160 0.44
2070 2071 0.44
2070 2141 0.42
2070 2196 0.48
2070 2213 0.46
2070 2241 0.31
2071 2141 0.48
2071 2143 0.49
2072 2234 0.47
2072 2144 0.62
2073 2145 0.42
2073 2146 0.59
2073 2108 0.48
2073 6593 0.61
2073 2107 0.49
2075 2095 0.52
2076 3846 0.53
2076 3845 0.45
2076 2212 0.33
2076 2094 0.41
2076 3971 0.62
2076 3921 0.31
2078 2080 0.47
2078 2116 0.48
2079 2264 0.45
2079 6269 0.5600000000000001
2079 2131 0.41
2080 2171 0.54
2082 2257 0.67
2084 2086 0.49
2084 2085 0.5600000000000001
2085 2220 0.42
2085 2101 0.43
2087 5984 0.43
2087 2094 0.44
2087 3694 0.42
2087 2112 0.35
2087 3918 0.51
2087 3595 0.52
2088 2180 0.54
2089 2197 0.6
2090 6372 0.61
2090 2192 0.54
2091 2255 0.59
2091 4787 0.75
2092 2255 0.5700000000000001
2093 2223 0.42
2093 3918 0.6
2093 3633 0.54
2094 2112 0.41
2094 2185 0.47
2094 3846 0.62
2095 2239 0.49
2095 2133 0.46
2096 2102 0.52
2096 2167 0.5600000000000001
2096 2132 0.43
2098 2152 0.48
2098 2154 0.44
2098 2136 0.48
2099 6639 0.63
2099 2257 0.5700000000000001
2099 2255 0.52
2100 2103 0.64
2101 3903 0.45
2102 6639 0.61
2102 2167 0.54
2102 2262 0.48
2102 2132 0.41
2102 2325 0.54
2103 2118 0.42
2104 2163 0.61
2106 2107 0.4
2106 2108 0.39
2107 2162 0.59
2108 4141 0.5700000000000001
2108 2146 0.6
2108 2135 0.5700000000000001
2109 2160 0.39
2109 2254 0.46
2109 2159 0.39
2110 2260 0.46
2111 2112 0.45
2118 2224 0.68
2118 3884 0.72
2123 2186 0.46
2124 2218 0.59
2126 2127 0.43
2130 6318 0.39
2130 2210 0.48
2132 2262 0.5700000000000001
2132 6430 0.59
2134 2159 0.44
2134 2236 0.45
2135 2218 0.52
2136 2219 0.51
2138 2196 0.55
2138 2213 0.52
2141 2147 0.46
2141 2213 0.54
2141 2157 0.45
2141 2238 0.49
2142 2495 0.5600000000000001
2142 4622 0.61
2143 2238 0.47
2143 2147 0.44
2144 6286 0.43
2144 2151 0.45
2144 2145 0.33
2144 2170 0.28
2144 2169 0.35
2144 2146 0.49
2144 4501 0.3
2146 2218 0.48
2147 2238 0.53
2147 2157 0.49
2148 4228 0.34
2149 2162 0.49
2152 2259 0.51
2152 2220 0.5
2152 2219 0.51
2155 3813 0.59
2156 2170 0.4
2157 2238 0.54
2157 2241 0.43
2158 2169 0.51
2158 2254 0.5600000000000001
2159 2163 0.51
2160 2254 0.5700000000000001
2161 2236 0.43
2161 2248 0.45
2163 2236 0.5
2167 2257 0.5
2167 2168 0.41
2168 2255 0.54
2169 2484 0.63
2169 2254 0.5600000000000001
2172 2225 0.37
2172 6205 0.44
2176 2269 0.45
2176 2177 0.44
2178 2209 0.52
2178 3815 0.64
2179 2180 0.61
2180 2194 0.47
2188 2266 0.55
2189 2200 0.46
2191 2219 0.5600000000000001
2192 2260 0.38
2192 2266 0.5
2192 6368 0.42
2192 3942 0.46
2192 6143 0.45
2193 2217 0.45
2194 2240 0.47
2194 2216 0.51
2195 2265 0.62
2196 2213 0.47
2197 2216 0.43
2197 2240 0.39
2198 2216 0.53
2198 2215 0.52
2200 2224 0.6
2203 2235 0.54
2204 6441 0.63
2207 2263 0.44
2210 5083 0.26
2211 2266 0.51
2213 4725 0.5600000000000001
2216 3711 0.52
2217 2240 0.47
2218 6661 0.47
2219 2220 0.49
2224 3884 0.55
2226 2236 0.47
2235 2239 0.44
2235 2269 0.47
2235 6441 0.5
2236 3983 0.55
2238 2242 0.34
2246 2268 0.59
2251 2268 0.64
2257 2835 0.45
2257 4785 0.51
2262 2325 0.5600000000000001
2264 6269 0.61
2268 2328 0.45
4133 2372 0.28
2386 2438 0.48
2441 4382 0.76
2471 6478 0.66
2544 2582 0.38
2655 3815 0.66
2692 2778 0.59
2732 4699 0.68
2744 2745 0.63
2795 2778 0.54
3301 3302 0.65
3457 3459 0.48
3589 5513 0.34
3595 5835 0.5
3598 5515 0.42
3681 5832 0.35
3681 3696 0.43
3685 5614 0.72
3695 5712 0.64
3724 3918 0.52
3724 3971 0.65
3908 6116 0.44
4087 4499 0.43
4133 4641 0.3
4431 4547 0.71
4696 4699 0.73
5528 5565 0.62
5545 5565 0.61
5565 5570 0.29
5698 5843 0.59
5995 5996 0.58
5996 6324 0.39
6276 6316 0.65

forceimprovementnum 1

maxthreads 8

